<svg xmlns="http://www.w3.org/2000/svg" width="40" height="40" fill="none" viewBox="0 0 40 40"><rect width="40" height="40" fill="#fff" rx="20"/><path fill="#F75D34" stroke="#F75D34" stroke-width=".2" d="M22.5 15a.833.833 0 0 1 0 1.667h-6.667a.833.833 0 0 1 0-1.667H22.5Zm6.423 14.756a.833.833 0 0 1-1.179 0l-2.006-2.006a3.714 3.714 0 0 1-4.071-.049 3.75 3.75 0 1 1 5.833-3.118 3.715 3.715 0 0 1-.583 1.989l2.006 2.006a.834.834 0 0 1 0 1.178Zm-5.173-3.09a2.083 2.083 0 1 0 0-4.166 2.083 2.083 0 0 0 0 4.167ZM20 28.334h-5a2.5 2.5 0 0 1-2.5-2.5V14.167a2.5 2.5 0 0 1 2.5-2.5h10a.834.834 0 0 1 .833.833v6.667a.833.833 0 0 0 1.667 0V12.5A2.5 2.5 0 0 0 25 10H15a4.171 4.171 0 0 0-4.167 4.167v11.666A4.172 4.172 0 0 0 15 30h5a.833.833 0 0 0 0-1.667Z"/></svg>