<svg xmlns="http://www.w3.org/2000/svg" width="36" height="36" fill="none" viewBox="0 0 36 36"><rect width="36" height="36" fill="#fff" rx="18"/><path fill="#F75D34" stroke="#F75D34" stroke-width=".2" d="M19.414 22.828H12.5a3.473 3.473 0 0 0-3.468 3.469c0 .388.314.703.703.703H22.18a.703.703 0 0 0 .703-.703 3.473 3.473 0 0 0-3.469-3.469Zm-8.853 2.766a2.066 2.066 0 0 1 1.94-1.36h6.913c.891 0 1.651.568 1.94 1.36H10.56Zm16.265-3.943-5.034-5.034 2.268-2.268a.703.703 0 0 0 0-.995l-4.148-4.148a.703.703 0 0 0-.995 0l-5.531 5.531a.703.703 0 0 0 0 .995l4.148 4.148c.275.275.72.275.995 0l2.268-2.268 5.034 5.034a.703.703 0 0 0 .995-.995Zm-8.794-3.263-3.155-3.154 4.537-4.536 3.154 3.154-4.536 4.536Z"/></svg>