<svg xmlns="http://www.w3.org/2000/svg" width="32" height="32" fill="none" viewBox="0 0 32 32"><circle cx="16" cy="16" r="16" fill="#FCEEEA"/><g stroke="#F75D34" stroke-linecap="round" stroke-linejoin="round" stroke-width="1.4" clip-path="url(#clip0_11226_12458)"><path fill="#fff" d="M14.902 17.092a13.333 13.333 0 0 0 2.842 2.166l1.058-1.058a1.667 1.667 0 0 1 1.758-.375c.756.282 1.542.478 2.342.583a1.667 1.667 0 0 1 1.433 1.667v2.5a1.666 1.666 0 0 1-1.817 1.667 16.492 16.492 0 0 1-7.191-2.559 16.193 16.193 0 0 1-2.775-2.225m-2.225-2.783a16.491 16.491 0 0 1-2.559-7.192 1.667 1.667 0 0 1 1.659-1.816h2.5A1.667 1.667 0 0 1 13.594 9.1c.105.8.3 1.586.583 2.342a1.667 1.667 0 0 1-.375 1.758l-1.059 1.058"/><path d="M25.165 6.833 6.832 25.167"/></g><defs><clipPath id="clip0_11226_12458"><path fill="#fff" d="M6 6h20v20H6z"/></clipPath></defs></svg>