<svg xmlns="http://www.w3.org/2000/svg" width="36" height="36" fill="none" viewBox="0 0 36 36"><rect width="36" height="36" fill="#fff" rx="18"/><path stroke="#F75D34" stroke-linejoin="round" stroke-width="1.5" d="M15.083 21.646h5.834m-10.209 0H9.25v-3.834a2 2 0 0 1 2-2h13.5a2 2 0 0 1 2 2v3.834h-1.458"/><path stroke="#F75D34" stroke-linejoin="round" stroke-width="1.5" d="M13.17 12.805a2 2 0 0 1 1.896-1.367h5.867a2 2 0 0 1 1.898 1.367l1.002 3.008H12.167l1.002-3.008Z"/><path stroke="#F75D34" stroke-linecap="round" stroke-width="1.5" d="M18 15.813v-4.376"/><circle cx="12.896" cy="22.375" r="2.188" stroke="#F75D34" stroke-linejoin="round" stroke-width="1.5"/><circle cx="23.104" cy="22.375" r="2.188" stroke="#F75D34" stroke-linejoin="round" stroke-width="1.5"/></svg>