<svg xmlns="http://www.w3.org/2000/svg" width="32" height="32" fill="none" viewBox="0 0 32 32"><circle cx="14" cy="14" r="10" fill="#fff" stroke="#F75D34" stroke-width="1.5"/><path stroke="#F75D34" stroke-linecap="round" stroke-width="1.5" d="M20.84 20.842s-2.488-4.21-6.842-4.21c-4.354 0-6.842 4.21-6.842 4.21"/><circle cx="14.069" cy="12.382" r="3.437" fill="#fff" stroke="#F75D34" stroke-width="1.5"/><circle cx="16" cy="16" r="16" fill="#FCEEEA"/><path fill="#fff" stroke="#F75D34" stroke-linecap="round" stroke-linejoin="round" stroke-width="1.4" d="M6 16a10 10 0 1 0 20 0 10 10 0 0 0-20 0Z"/><path fill="#fff" d="M19.335 11.556h-6.667 1.111a3.333 3.333 0 0 1 0 6.666h-1.111l3.333 3.333"/><path stroke="#F75D34" stroke-linecap="round" stroke-linejoin="round" stroke-width="1.4" d="M19.335 11.556h-6.667 1.111a3.333 3.333 0 0 1 0 6.666h-1.111l3.333 3.333"/><path fill="#fff" d="M12.668 14.889h6.667Z"/><path stroke="#F75D34" stroke-linecap="round" stroke-linejoin="round" stroke-width="1.4" d="M12.668 14.889h6.667"/></svg>